0
SECTION
2
HEADER
0
ENDSEC
0
SECTION
2
ENTITIES
0
LWPOLYLINE
8
EDGE_CUTS
90
96
70
1
10
84.0000
20
33.0000
10
83.9883
20
33.3412
10
83.9534
20
33.6808
10
83.8954
20
34.0173
10
83.8146
20
34.3490
10
83.7113
20
34.6744
10
83.5861
20
34.9920
10
83.4394
20
35.3003
10
83.2721
20
35.5979
10
83.0848
20
35.8834
10
82.8786
20
36.1554
10
82.6542
20
36.4128
10
82.4128
20
36.6542
10
82.1554
20
36.8786
10
81.8834
20
37.0848
10
81.5979
20
37.2721
10
81.3003
20
37.4394
10
80.9920
20
37.5861
10
80.6744
20
37.7113
10
80.3490
20
37.8146
10
80.0173
20
37.8954
10
79.6808
20
37.9534
10
79.3412
20
37.9883
10
79.0000
20
38.0000
10
-79.0000
20
38.0000
10
-79.3412
20
37.9883
10
-79.6808
20
37.9534
10
-80.0173
20
37.8954
10
-80.3490
20
37.8146
10
-80.6744
20
37.7113
10
-80.9920
20
37.5861
10
-81.3003
20
37.4394
10
-81.5979
20
37.2721
10
-81.8834
20
37.0848
10
-82.1554
20
36.8786
10
-82.4128
20
36.6542
10
-82.6542
20
36.4128
10
-82.8786
20
36.1554
10
-83.0848
20
35.8834
10
-83.2721
20
35.5979
10
-83.4394
20
35.3003
10
-83.5861
20
34.9920
10
-83.7113
20
34.6744
10
-83.8146
20
34.3490
10
-83.8954
20
34.0173
10
-83.9534
20
33.6808
10
-83.9883
20
33.3412
10
-84.0000
20
33.0000
10
-84.0000
20
-33.0000
10
-83.9883
20
-33.3412
10
-83.9534
20
-33.6808
10
-83.8954
20
-34.0173
10
-83.8146
20
-34.3490
10
-83.7113
20
-34.6744
10
-83.5861
20
-34.9920
10
-83.4394
20
-35.3003
10
-83.2721
20
-35.5979
10
-83.0848
20
-35.8834
10
-82.8786
20
-36.1554
10
-82.6542
20
-36.4128
10
-82.4128
20
-36.6542
10
-82.1554
20
-36.8786
10
-81.8834
20
-37.0848
10
-81.5979
20
-37.2721
10
-81.3003
20
-37.4394
10
-80.9920
20
-37.5861
10
-80.6744
20
-37.7113
10
-80.3490
20
-37.8146
10
-80.0173
20
-37.8954
10
-79.6808
20
-37.9534
10
-79.3412
20
-37.9883
10
-79.0000
20
-38.0000
10
79.0000
20
-38.0000
10
79.3412
20
-37.9883
10
79.6808
20
-37.9534
10
80.0173
20
-37.8954
10
80.3490
20
-37.8146
10
80.6744
20
-37.7113
10
80.9920
20
-37.5861
10
81.3003
20
-37.4394
10
81.5979
20
-37.2721
10
81.8834
20
-37.0848
10
82.1554
20
-36.8786
10
82.4128
20
-36.6542
10
82.6542
20
-36.4128
10
82.8786
20
-36.1554
10
83.0848
20
-35.8834
10
83.2721
20
-35.5979
10
83.4394
20
-35.3003
10
83.5861
20
-34.9920
10
83.7113
20
-34.6744
10
83.8146
20
-34.3490
10
83.8954
20
-34.0173
10
83.9534
20
-33.6808
10
83.9883
20
-33.3412
10
84.0000
20
-33.0000
0
LWPOLYLINE
8
EDGE_CUTS_INNER
90
48
70
1
10
72.5000
20
14.0000
10
72.3588
20
16.1537
10
71.9378
20
18.2705
10
71.2440
20
20.3143
10
70.2894
20
22.2500
10
69.0903
20
24.0446
10
67.6673
20
25.6673
10
66.0446
20
27.0903
10
64.2500
20
28.2894
10
62.3143
20
29.2440
10
60.2705
20
29.9378
10
58.1537
20
30.3588
10
56.0000
20
30.5000
10
53.8463
20
30.3588
10
51.7295
20
29.9378
10
49.6857
20
29.2440
10
47.7500
20
28.2894
10
45.9554
20
27.0903
10
44.3327
20
25.6673
10
42.9097
20
24.0446
10
41.7106
20
22.2500
10
40.7560
20
20.3143
10
40.0622
20
18.2705
10
39.6412
20
16.1537
10
39.5000
20
14.0000
10
39.6412
20
11.8463
10
40.0622
20
9.7295
10
40.7560
20
7.6857
10
41.7106
20
5.7500
10
42.9097
20
3.9554
10
44.3327
20
2.3327
10
45.9554
20
0.9097
10
47.7500
20
-0.2894
10
49.6857
20
-1.2440
10
51.7295
20
-1.9378
10
53.8463
20
-2.3588
10
56.0000
20
-2.5000
10
58.1537
20
-2.3588
10
60.2705
20
-1.9378
10
62.3143
20
-1.2440
10
64.2500
20
-0.2894
10
66.0446
20
0.9097
10
67.6673
20
2.3327
10
69.0903
20
3.9554
10
70.2894
20
5.7500
10
71.2440
20
7.6857
10
71.9378
20
9.7295
10
72.3588
20
11.8463
0
LWPOLYLINE
8
EDGE_CUTS_INNER
90
48
70
1
10
-39.5000
20
14.0000
10
-39.6412
20
16.1537
10
-40.0622
20
18.2705
10
-40.7560
20
20.3143
10
-41.7106
20
22.2500
10
-42.9097
20
24.0446
10
-44.3327
20
25.6673
10
-45.9554
20
27.0903
10
-47.7500
20
28.2894
10
-49.6857
20
29.2440
10
-51.7295
20
29.9378
10
-53.8463
20
30.3588
10
-56.0000
20
30.5000
10
-58.1537
20
30.3588
10
-60.2705
20
29.9378
10
-62.3143
20
29.2440
10
-64.2500
20
28.2894
10
-66.0446
20
27.0903
10
-67.6673
20
25.6673
10
-69.0903
20
24.0446
10
-70.2894
20
22.2500
10
-71.2440
20
20.3143
10
-71.9378
20
18.2705
10
-72.3588
20
16.1537
10
-72.5000
20
14.0000
10
-72.3588
20
11.8463
10
-71.9378
20
9.7295
10
-71.2440
20
7.6857
10
-70.2894
20
5.7500
10
-69.0903
20
3.9554
10
-67.6673
20
2.3327
10
-66.0446
20
0.9097
10
-64.2500
20
-0.2894
10
-62.3143
20
-1.2440
10
-60.2705
20
-1.9378
10
-58.1537
20
-2.3588
10
-56.0000
20
-2.5000
10
-53.8463
20
-2.3588
10
-51.7295
20
-1.9378
10
-49.6857
20
-1.2440
10
-47.7500
20
-0.2894
10
-45.9554
20
0.9097
10
-44.3327
20
2.3327
10
-42.9097
20
3.9554
10
-41.7106
20
5.7500
10
-40.7560
20
7.6857
10
-40.0622
20
9.7295
10
-39.6412
20
11.8463
0
LWPOLYLINE
8
HOLES
90
48
70
1
10
41.2000
20
30.0000
10
41.1897
20
30.1566
10
41.1591
20
30.3106
10
41.1087
20
30.4592
10
41.0392
20
30.6000
10
40.9520
20
30.7305
10
40.8485
20
30.8485
10
40.7305
20
30.9520
10
40.6000
20
31.0392
10
40.4592
20
31.1087
10
40.3106
20
31.1591
10
40.1566
20
31.1897
10
40.0000
20
31.2000
10
39.8434
20
31.1897
10
39.6894
20
31.1591
10
39.5408
20
31.1087
10
39.4000
20
31.0392
10
39.2695
20
30.9520
10
39.1515
20
30.8485
10
39.0480
20
30.7305
10
38.9608
20
30.6000
10
38.8913
20
30.4592
10
38.8409
20
30.3106
10
38.8103
20
30.1566
10
38.8000
20
30.0000
10
38.8103
20
29.8434
10
38.8409
20
29.6894
10
38.8913
20
29.5408
10
38.9608
20
29.4000
10
39.0480
20
29.2695
10
39.1515
20
29.1515
10
39.2695
20
29.0480
10
39.4000
20
28.9608
10
39.5408
20
28.8913
10
39.6894
20
28.8409
10
39.8434
20
28.8103
10
40.0000
20
28.8000
10
40.1566
20
28.8103
10
40.3106
20
28.8409
10
40.4592
20
28.8913
10
40.6000
20
28.9608
10
40.7305
20
29.0480
10
40.8485
20
29.1515
10
40.9520
20
29.2695
10
41.0392
20
29.4000
10
41.1087
20
29.5408
10
41.1591
20
29.6894
10
41.1897
20
29.8434
0
LWPOLYLINE
8
HOLES
90
48
70
1
10
-38.8000
20
30.0000
10
-38.8103
20
30.1566
10
-38.8409
20
30.3106
10
-38.8913
20
30.4592
10
-38.9608
20
30.6000
10
-39.0480
20
30.7305
10
-39.1515
20
30.8485
10
-39.2695
20
30.9520
10
-39.4000
20
31.0392
10
-39.5408
20
31.1087
10
-39.6894
20
31.1591
10
-39.8434
20
31.1897
10
-40.0000
20
31.2000
10
-40.1566
20
31.1897
10
-40.3106
20
31.1591
10
-40.4592
20
31.1087
10
-40.6000
20
31.0392
10
-40.7305
20
30.9520
10
-40.8485
20
30.8485
10
-40.9520
20
30.7305
10
-41.0392
20
30.6000
10
-41.1087
20
30.4592
10
-41.1591
20
30.3106
10
-41.1897
20
30.1566
10
-41.2000
20
30.0000
10
-41.1897
20
29.8434
10
-41.1591
20
29.6894
10
-41.1087
20
29.5408
10
-41.0392
20
29.4000
10
-40.9520
20
29.2695
10
-40.8485
20
29.1515
10
-40.7305
20
29.0480
10
-40.6000
20
28.9608
10
-40.4592
20
28.8913
10
-40.3106
20
28.8409
10
-40.1566
20
28.8103
10
-40.0000
20
28.8000
10
-39.8434
20
28.8103
10
-39.6894
20
28.8409
10
-39.5408
20
28.8913
10
-39.4000
20
28.9608
10
-39.2695
20
29.0480
10
-39.1515
20
29.1515
10
-39.0480
20
29.2695
10
-38.9608
20
29.4000
10
-38.8913
20
29.5408
10
-38.8409
20
29.6894
10
-38.8103
20
29.8434
0
LWPOLYLINE
8
HOLES
90
48
70
1
10
41.2000
20
-30.0000
10
41.1897
20
-29.8434
10
41.1591
20
-29.6894
10
41.1087
20
-29.5408
10
41.0392
20
-29.4000
10
40.9520
20
-29.2695
10
40.8485
20
-29.1515
10
40.7305
20
-29.0480
10
40.6000
20
-28.9608
10
40.4592
20
-28.8913
10
40.3106
20
-28.8409
10
40.1566
20
-28.8103
10
40.0000
20
-28.8000
10
39.8434
20
-28.8103
10
39.6894
20
-28.8409
10
39.5408
20
-28.8913
10
39.4000
20
-28.9608
10
39.2695
20
-29.0480
10
39.1515
20
-29.1515
10
39.0480
20
-29.2695
10
38.9608
20
-29.4000
10
38.8913
20
-29.5408
10
38.8409
20
-29.6894
10
38.8103
20
-29.8434
10
38.8000
20
-30.0000
10
38.8103
20
-30.1566
10
38.8409
20
-30.3106
10
38.8913
20
-30.4592
10
38.9608
20
-30.6000
10
39.0480
20
-30.7305
10
39.1515
20
-30.8485
10
39.2695
20
-30.9520
10
39.4000
20
-31.0392
10
39.5408
20
-31.1087
10
39.6894
20
-31.1591
10
39.8434
20
-31.1897
10
40.0000
20
-31.2000
10
40.1566
20
-31.1897
10
40.3106
20
-31.1591
10
40.4592
20
-31.1087
10
40.6000
20
-31.0392
10
40.7305
20
-30.9520
10
40.8485
20
-30.8485
10
40.9520
20
-30.7305
10
41.0392
20
-30.6000
10
41.1087
20
-30.4592
10
41.1591
20
-30.3106
10
41.1897
20
-30.1566
0
LWPOLYLINE
8
HOLES
90
48
70
1
10
-38.8000
20
-30.0000
10
-38.8103
20
-29.8434
10
-38.8409
20
-29.6894
10
-38.8913
20
-29.5408
10
-38.9608
20
-29.4000
10
-39.0480
20
-29.2695
10
-39.1515
20
-29.1515
10
-39.2695
20
-29.0480
10
-39.4000
20
-28.9608
10
-39.5408
20
-28.8913
10
-39.6894
20
-28.8409
10
-39.8434
20
-28.8103
10
-40.0000
20
-28.8000
10
-40.1566
20
-28.8103
10
-40.3106
20
-28.8409
10
-40.4592
20
-28.8913
10
-40.6000
20
-28.9608
10
-40.7305
20
-29.0480
10
-40.8485
20
-29.1515
10
-40.9520
20
-29.2695
10
-41.0392
20
-29.4000
10
-41.1087
20
-29.5408
10
-41.1591
20
-29.6894
10
-41.1897
20
-29.8434
10
-41.2000
20
-30.0000
10
-41.1897
20
-30.1566
10
-41.1591
20
-30.3106
10
-41.1087
20
-30.4592
10
-41.0392
20
-30.6000
10
-40.9520
20
-30.7305
10
-40.8485
20
-30.8485
10
-40.7305
20
-30.9520
10
-40.6000
20
-31.0392
10
-40.4592
20
-31.1087
10
-40.3106
20
-31.1591
10
-40.1566
20
-31.1897
10
-40.0000
20
-31.2000
10
-39.8434
20
-31.1897
10
-39.6894
20
-31.1591
10
-39.5408
20
-31.1087
10
-39.4000
20
-31.0392
10
-39.2695
20
-30.9520
10
-39.1515
20
-30.8485
10
-39.0480
20
-30.7305
10
-38.9608
20
-30.6000
10
-38.8913
20
-30.4592
10
-38.8409
20
-30.3106
10
-38.8103
20
-30.1566
0
LWPOLYLINE
8
SILK
90
4
70
1
10
-84.0000
20
-10.5000
10
-77.5000
20
-10.5000
10
-77.5000
20
-1.5000
10
-84.0000
20
-1.5000
0
LWPOLYLINE
8
SILK
90
4
70
1
10
78.0000
20
18.5000
10
84.0000
20
18.5000
10
84.0000
20
25.5000
10
78.0000
20
25.5000
0
LWPOLYLINE
8
SILK
90
4
70
1
10
-11.2500
20
9.0000
10
11.2500
20
9.0000
10
11.2500
20
27.0000
10
-11.2500
20
27.0000
0
LWPOLYLINE
8
SILK
90
48
70
1
10
33.0000
20
14.0000
10
32.9743
20
14.3916
10
32.8978
20
14.7765
10
32.7716
20
15.1481
10
32.5981
20
15.5000
10
32.3801
20
15.8263
10
32.1213
20
16.1213
10
31.8263
20
16.3801
10
31.5000
20
16.5981
10
31.1481
20
16.7716
10
30.7765
20
16.8978
10
30.3916
20
16.9743
10
30.0000
20
17.0000
10
29.6084
20
16.9743
10
29.2235
20
16.8978
10
28.8519
20
16.7716
10
28.5000
20
16.5981
10
28.1737
20
16.3801
10
27.8787
20
16.1213
10
27.6199
20
15.8263
10
27.4019
20
15.5000
10
27.2284
20
15.1481
10
27.1022
20
14.7765
10
27.0257
20
14.3916
10
27.0000
20
14.0000
10
27.0257
20
13.6084
10
27.1022
20
13.2235
10
27.2284
20
12.8519
10
27.4019
20
12.5000
10
27.6199
20
12.1737
10
27.8787
20
11.8787
10
28.1737
20
11.6199
10
28.5000
20
11.4019
10
28.8519
20
11.2284
10
29.2235
20
11.1022
10
29.6084
20
11.0257
10
30.0000
20
11.0000
10
30.3916
20
11.0257
10
30.7765
20
11.1022
10
31.1481
20
11.2284
10
31.5000
20
11.4019
10
31.8263
20
11.6199
10
32.1213
20
11.8787
10
32.3801
20
12.1737
10
32.5981
20
12.5000
10
32.7716
20
12.8519
10
32.8978
20
13.2235
10
32.9743
20
13.6084
0
LWPOLYLINE
8
SILK
90
48
70
1
10
-27.0000
20
14.0000
10
-27.0257
20
14.3916
10
-27.1022
20
14.7765
10
-27.2284
20
15.1481
10
-27.4019
20
15.5000
10
-27.6199
20
15.8263
10
-27.8787
20
16.1213
10
-28.1737
20
16.3801
10
-28.5000
20
16.5981
10
-28.8519
20
16.7716
10
-29.2235
20
16.8978
10
-29.6084
20
16.9743
10
-30.0000
20
17.0000
10
-30.3916
20
16.9743
10
-30.7765
20
16.8978
10
-31.1481
20
16.7716
10
-31.5000
20
16.5981
10
-31.8263
20
16.3801
10
-32.1213
20
16.1213
10
-32.3801
20
15.8263
10
-32.5981
20
15.5000
10
-32.7716
20
15.1481
10
-32.8978
20
14.7765
10
-32.9743
20
14.3916
10
-33.0000
20
14.0000
10
-32.9743
20
13.6084
10
-32.8978
20
13.2235
10
-32.7716
20
12.8519
10
-32.5981
20
12.5000
10
-32.3801
20
12.1737
10
-32.1213
20
11.8787
10
-31.8263
20
11.6199
10
-31.5000
20
11.4019
10
-31.1481
20
11.2284
10
-30.7765
20
11.1022
10
-30.3916
20
11.0257
10
-30.0000
20
11.0000
10
-29.6084
20
11.0257
10
-29.2235
20
11.1022
10
-28.8519
20
11.2284
10
-28.5000
20
11.4019
10
-28.1737
20
11.6199
10
-27.8787
20
11.8787
10
-27.6199
20
12.1737
10
-27.4019
20
12.5000
10
-27.2284
20
12.8519
10
-27.1022
20
13.2235
10
-27.0257
20
13.6084
0
ENDSEC
0
EOF
